<svg width="591" height="116" viewBox="0 0 591 116" fill="none" xmlns="http://www.w3.org/2000/svg">
<path d="M130.631 27.513H140.368L152.805 83.0452L167.652 27.513H178.257L193.49 83.0452L205.927 27.513H215.279L199.275 95H188.38L172.762 39.4679L157.529 95H146.635L130.631 27.513ZM240.962 95.6749C237.876 95.6749 235.048 95.1928 232.477 94.2287C229.971 93.2003 227.818 91.7221 226.018 89.7939C224.283 87.8014 222.901 85.3911 221.872 82.5631C220.908 79.6708 220.426 76.3607 220.426 72.6329V65.3057C220.426 58.1071 222.194 52.6439 225.729 48.916C229.328 45.1239 234.245 43.2279 240.48 43.2279C246.714 43.2279 251.599 45.1239 255.134 48.916C258.733 52.6439 260.533 58.1714 260.533 65.4986V71.958H228.91C228.975 77.8069 230.067 82.0168 232.188 84.5877C234.374 87.0944 237.298 88.3477 240.962 88.3477C242.568 88.3477 243.95 88.1549 245.107 87.7693C246.328 87.3193 247.325 86.7409 248.096 86.0339C248.931 85.3269 249.574 84.5235 250.024 83.6236C250.474 82.7238 250.795 81.7918 250.988 80.8277H259.569C258.54 85.8411 256.451 89.5689 253.302 92.0113C250.153 94.4537 246.039 95.6749 240.962 95.6749ZM240.576 50.555C236.912 50.555 234.052 51.6798 231.995 53.9294C230.003 56.1147 228.975 59.8104 228.91 65.0165H252.531C252.402 59.8104 251.31 56.1147 249.253 53.9294C247.26 51.6798 244.368 50.555 240.576 50.555ZM295.484 95.5785C291.821 95.5785 288.736 94.775 286.229 93.1682C283.787 91.5614 281.826 89.3439 280.348 86.5159V95H272.732V27.513H281.312V51.8083C282.533 49.3017 284.301 47.2449 286.615 45.6381C288.993 44.0313 291.949 43.2279 295.484 43.2279C298.184 43.2279 300.658 43.7099 302.908 44.674C305.158 45.6381 307.086 47.0521 308.693 48.916C310.364 50.78 311.649 53.0938 312.549 55.8576C313.513 58.6213 313.995 61.7707 313.995 65.3057V72.6329C313.995 76.425 313.513 79.7672 312.549 82.6595C311.649 85.4876 310.364 87.8657 308.693 89.7939C307.086 91.7221 305.158 93.1682 302.908 94.1323C300.658 95.0964 298.184 95.5785 295.484 95.5785ZM293.749 88.0585C297.22 88.0585 300.048 86.8373 302.233 84.3949C304.418 81.8882 305.511 77.9676 305.511 72.6329V65.3057C305.511 60.421 304.418 56.7895 302.233 54.4114C300.048 51.969 297.22 50.7478 293.749 50.7478C289.893 50.7478 286.84 51.969 284.59 54.4114C282.405 56.7895 281.312 60.421 281.312 65.3057V72.6329C281.312 77.9676 282.405 81.8882 284.59 84.3949C286.84 86.8373 289.893 88.0585 293.749 88.0585ZM328.426 27.513H337.296L368.147 79.3816V27.513H377.017V95H368.147L337.296 43.035V95H328.426V27.513ZM412.515 95.6749C406.087 95.6749 400.978 93.7145 397.186 89.7939C393.393 85.8089 391.497 80.0886 391.497 72.6329V65.3057C391.497 61.835 391.979 58.7499 392.944 56.0504C393.972 53.2866 395.386 50.9728 397.186 49.1089C399.05 47.1807 401.267 45.7345 403.838 44.7704C406.409 43.742 409.301 43.2279 412.515 43.2279C415.728 43.2279 418.621 43.742 421.192 44.7704C423.763 45.7345 425.948 47.1807 427.748 49.1089C429.612 50.9728 431.026 53.2866 431.99 56.0504C433.018 58.7499 433.532 61.835 433.532 65.3057V72.6329C433.532 80.0886 431.636 85.8089 427.844 89.7939C424.052 93.7145 418.942 95.6749 412.515 95.6749ZM412.515 88.1549C416.371 88.1549 419.424 86.9337 421.674 84.4913C423.923 81.9847 425.048 78.0318 425.048 72.6329V65.3057C425.048 60.421 423.923 56.7895 421.674 54.4114C419.424 51.969 416.371 50.7478 412.515 50.7478C408.658 50.7478 405.605 51.969 403.356 54.4114C401.106 56.7895 399.982 60.421 399.982 65.3057V72.6329C399.982 78.0318 401.106 81.9847 403.356 84.4913C405.605 86.9337 408.658 88.1549 412.515 88.1549ZM462.073 95.5785C459.374 95.5785 456.867 95.0964 454.553 94.1323C452.304 93.1682 450.343 91.7221 448.672 89.7939C447.065 87.8657 445.812 85.4876 444.912 82.6595C444.012 79.7672 443.563 76.425 443.563 72.6329V65.3057C443.563 61.7707 444.012 58.6213 444.912 55.8576C445.812 53.0938 447.065 50.78 448.672 48.916C450.343 47.0521 452.304 45.6381 454.553 44.674C456.867 43.7099 459.374 43.2279 462.073 43.2279C465.608 43.2279 468.533 44.0313 470.847 45.6381C473.225 47.2449 475.024 49.3017 476.246 51.8083V27.513H484.826V95H477.21V86.5159C475.731 89.3439 473.739 91.5614 471.232 93.1682C468.79 94.775 465.737 95.5785 462.073 95.5785ZM463.809 88.0585C467.665 88.0585 470.686 86.8373 472.871 84.3949C475.121 81.8882 476.246 77.9676 476.246 72.6329V65.3057C476.246 60.421 475.121 56.7895 472.871 54.4114C470.686 51.969 467.665 50.7478 463.809 50.7478C460.338 50.7478 457.51 51.969 455.325 54.4114C453.139 56.7895 452.047 60.421 452.047 65.3057V72.6329C452.047 77.9676 453.139 81.8882 455.325 84.3949C457.51 86.8373 460.338 88.0585 463.809 88.0585ZM517.575 95.6749C514.49 95.6749 511.662 95.1928 509.091 94.2287C506.585 93.2003 504.431 91.7221 502.632 89.7939C500.896 87.8014 499.514 85.3911 498.486 82.5631C497.522 79.6708 497.04 76.3607 497.04 72.6329V65.3057C497.04 58.1071 498.807 52.6439 502.342 48.916C505.942 45.1239 510.859 43.2279 517.093 43.2279C523.328 43.2279 528.212 45.1239 531.748 48.916C535.347 52.6439 537.146 58.1714 537.146 65.4986V71.958H505.524C505.588 77.8069 506.681 82.0168 508.802 84.5877C510.987 87.0944 513.912 88.3477 517.575 88.3477C519.182 88.3477 520.564 88.1549 521.721 87.7693C522.942 87.3193 523.938 86.7409 524.71 86.0339C525.545 85.3269 526.188 84.5235 526.638 83.6236C527.088 82.7238 527.409 81.7918 527.602 80.8277H536.182C535.154 85.8411 533.065 89.5689 529.916 92.0113C526.766 94.4537 522.653 95.6749 517.575 95.6749ZM517.19 50.555C513.526 50.555 510.666 51.6798 508.609 53.9294C506.617 56.1147 505.588 59.8104 505.524 65.0165H529.144C529.016 59.8104 527.923 56.1147 525.867 53.9294C523.874 51.6798 520.982 50.555 517.19 50.555ZM566.217 95.6749C562.811 95.6749 559.886 95.3214 557.444 94.6144C555.066 93.8431 553.073 92.8147 551.466 91.5292C549.924 90.1795 548.767 88.6048 547.996 86.8052C547.224 85.0055 546.774 83.013 546.646 80.8277H555.226C555.355 81.9847 555.612 83.013 555.998 83.9129C556.448 84.8127 557.09 85.6161 557.926 86.3231C558.761 86.9658 559.854 87.48 561.204 87.8657C562.554 88.187 564.225 88.3477 566.217 88.3477C570.395 88.3477 573.287 87.705 574.894 86.4195C576.565 85.0698 577.401 83.3023 577.401 81.117C577.401 80.2171 577.272 79.3816 577.015 78.6103C576.758 77.7748 576.179 77.0035 575.28 76.2965C574.444 75.5895 573.191 74.9467 571.52 74.3683C569.849 73.7255 567.631 73.1471 564.867 72.6329C559.211 71.5402 554.969 69.9013 552.141 67.716C549.377 65.4664 547.996 62.1242 547.996 57.6893C547.996 53.4473 549.474 49.9766 552.43 47.2771C555.451 44.5776 560.047 43.2279 566.217 43.2279C572.387 43.2279 576.886 44.5776 579.714 47.2771C582.607 49.9766 584.181 53.4473 584.439 57.6893H575.858C575.601 55.4398 574.798 53.7044 573.448 52.4832C572.098 51.1977 569.688 50.555 566.217 50.555C562.618 50.555 560.079 51.1656 558.601 52.3868C557.187 53.608 556.48 55.3112 556.48 57.4965C556.48 58.4606 556.608 59.3283 556.865 60.0996C557.122 60.8709 557.637 61.5779 558.408 62.2206C559.243 62.7991 560.4 63.3454 561.879 63.8596C563.357 64.3738 565.317 64.8558 567.76 65.3057C570.909 65.8842 573.609 66.5912 575.858 67.4268C578.172 68.198 580.036 69.1943 581.45 70.4155C582.928 71.6367 584.021 73.1149 584.728 74.8503C585.435 76.5214 585.788 78.5139 585.788 80.8277C585.788 85.1983 584.214 88.7655 581.064 91.5292C577.915 94.293 572.966 95.6749 566.217 95.6749Z" fill="white"/>
<path d="M8.45977 4.39001H3.40824V9.44154H8.45977V4.39001Z" fill="white"/>
<path d="M13.5113 4.39001H8.45977V9.44154H13.5113V4.39001Z" fill="white"/>
<path d="M18.5628 4.39001H13.5113V9.44154H18.5628V4.39001Z" fill="white"/>
<path d="M23.6144 4.39001H18.5628V9.44154H23.6144V4.39001Z" fill="white"/>
<path d="M28.6659 4.39001H23.6144V9.44154H28.6659V4.39001Z" fill="white"/>
<path d="M33.7174 4.39001H28.6659V9.44154H33.7174V4.39001Z" fill="white"/>
<path d="M38.769 4.39001H33.7174V9.44154H38.769V4.39001Z" fill="white"/>
<path d="M48.872 4.39001H43.8205V9.44154H48.872V4.39001Z" fill="white"/>
<path d="M53.9235 4.39001H48.872V9.44154H53.9235V4.39001Z" fill="white"/>
<path d="M58.9751 4.39001H53.9235V9.44154H58.9751V4.39001Z" fill="white"/>
<path d="M69.0781 4.39001H64.0266V9.44154H69.0781V4.39001Z" fill="white"/>
<path d="M79.1812 4.39001H74.1297V9.44154H79.1812V4.39001Z" fill="white"/>
<path d="M84.2327 4.39001H79.1812V9.44154H84.2327V4.39001Z" fill="white"/>
<path d="M89.2843 4.39001H84.2327V9.44154H89.2843V4.39001Z" fill="white"/>
<path d="M94.3358 4.39001H89.2843V9.44154H94.3358V4.39001Z" fill="white"/>
<path d="M99.3873 4.39001H94.3358V9.44154H99.3873V4.39001Z" fill="white"/>
<path d="M104.439 4.39001H99.3873V9.44154H104.439V4.39001Z" fill="white"/>
<path d="M109.49 4.39001H104.439V9.44154H109.49V4.39001Z" fill="white"/>
<path d="M8.45977 9.44154H3.40824V14.4931H8.45977V9.44154Z" fill="white"/>
<path d="M38.769 9.44154H33.7174V14.4931H38.769V9.44154Z" fill="white"/>
<path d="M58.9751 9.44154H53.9235L53.9235 14.4931H58.9751V9.44154Z" fill="white"/>
<path d="M79.1812 9.44154H74.1297V14.4931H79.1812V9.44154Z" fill="white"/>
<path d="M109.49 9.44154H104.439V14.4931H109.49V9.44154Z" fill="white"/>
<path d="M8.45977 14.4931H3.40824V19.5446H8.45977V14.4931Z" fill="white"/>
<path d="M18.5628 14.4931H13.5113V19.5446H18.5628V14.4931Z" fill="white"/>
<path d="M23.6144 14.4931H18.5628V19.5446H23.6144V14.4931Z" fill="white"/>
<path d="M28.6659 14.4931H23.6144V19.5446H28.6659V14.4931Z" fill="white"/>
<path d="M38.769 14.4931H33.7174V19.5446H38.769V14.4931Z" fill="white"/>
<path d="M53.9235 14.4931H48.872V19.5446H53.9235L53.9235 14.4931Z" fill="white"/>
<path d="M58.9751 14.4931H53.9235L53.9235 19.5446H58.9751V14.4931Z" fill="white"/>
<path d="M64.0266 14.4931H58.9751V19.5446H64.0266V14.4931Z" fill="white"/>
<path d="M69.0781 14.4931H64.0266V19.5446H69.0781V14.4931Z" fill="white"/>
<path d="M79.1812 14.4931H74.1297V19.5446H79.1812V14.4931Z" fill="white"/>
<path d="M89.2843 14.4931H84.2327V19.5446H89.2843V14.4931Z" fill="white"/>
<path d="M94.3358 14.4931H89.2843V19.5446H94.3358V14.4931Z" fill="white"/>
<path d="M99.3873 14.4931H94.3358V19.5446H99.3873V14.4931Z" fill="white"/>
<path d="M109.49 14.4931H104.439V19.5446H109.49V14.4931Z" fill="white"/>
<path d="M8.45977 19.5446H3.40824V24.5961H8.45977V19.5446Z" fill="white"/>
<path d="M18.5628 19.5446H13.5113V24.5961H18.5628V19.5446Z" fill="white"/>
<path d="M23.6144 19.5446H18.5628V24.5961H23.6144V19.5446Z" fill="white"/>
<path d="M28.6659 19.5446H23.6144V24.5961H28.6659V19.5446Z" fill="white"/>
<path d="M38.769 19.5446H33.7174V24.5961H38.769V19.5446Z" fill="white"/>
<path d="M53.9235 19.5446H48.872V24.5961H53.9235V19.5446Z" fill="white"/>
<path d="M58.9751 19.5446H53.9235V24.5961H58.9751V19.5446Z" fill="white"/>
<path d="M79.1812 19.5446H74.1297V24.5961H79.1812V19.5446Z" fill="white"/>
<path d="M89.2843 19.5446H84.2327V24.5961H89.2843V19.5446Z" fill="white"/>
<path d="M94.3358 19.5446H89.2843V24.5961H94.3358V19.5446Z" fill="white"/>
<path d="M99.3873 19.5446H94.3358V24.5961H99.3873V19.5446Z" fill="white"/>
<path d="M109.49 19.5446H104.439V24.5961H109.49V19.5446Z" fill="white"/>
<path d="M8.45977 24.5961H3.40824V29.6477H8.45977V24.5961Z" fill="white"/>
<path d="M18.5628 24.5961H13.5113V29.6477H18.5628V24.5961Z" fill="white"/>
<path d="M23.6144 24.5961H18.5628V29.6477H23.6144V24.5961Z" fill="white"/>
<path d="M28.6659 24.5961H23.6144V29.6477H28.6659V24.5961Z" fill="white"/>
<path d="M38.769 24.5961H33.7174V29.6477H38.769V24.5961Z" fill="white"/>
<path d="M53.9235 24.5961H48.872V29.6477H53.9235V24.5961Z" fill="white"/>
<path d="M58.9751 24.5961H53.9235V29.6477H58.9751V24.5961Z" fill="white"/>
<path d="M79.1812 24.5961H74.1297V29.6477H79.1812V24.5961Z" fill="white"/>
<path d="M89.2843 24.5961H84.2327V29.6477H89.2843V24.5961Z" fill="white"/>
<path d="M94.3358 24.5961H89.2843V29.6477H94.3358V24.5961Z" fill="white"/>
<path d="M99.3873 24.5961H94.3358V29.6477H99.3873V24.5961Z" fill="white"/>
<path d="M109.49 24.5961H104.439V29.6477H109.49V24.5961Z" fill="white"/>
<path d="M8.45977 29.6477H3.40824V34.6992H8.45977V29.6477Z" fill="white"/>
<path d="M38.769 29.6477H33.7174V34.6992H38.769V29.6477Z" fill="white"/>
<path d="M64.0266 29.6477H58.9751L58.9751 34.6992H64.0266V29.6477Z" fill="white"/>
<path d="M79.1812 29.6477H74.1297V34.6992H79.1812V29.6477Z" fill="white"/>
<path d="M109.49 29.6477H104.439V34.6992H109.49V29.6477Z" fill="white"/>
<path d="M8.45977 34.6992H3.40824V39.7507H8.45977V34.6992Z" fill="white"/>
<path d="M13.5113 34.6992H8.45977V39.7507H13.5113V34.6992Z" fill="white"/>
<path d="M18.5628 34.6992H13.5113V39.7507H18.5628V34.6992Z" fill="white"/>
<path d="M23.6144 34.6992H18.5628V39.7507H23.6144V34.6992Z" fill="white"/>
<path d="M28.6659 34.6992H23.6144V39.7507H28.6659V34.6992Z" fill="white"/>
<path d="M33.7174 34.6992H28.6659V39.7507H33.7174V34.6992Z" fill="white"/>
<path d="M38.769 34.6992H33.7174V39.7507H38.769V34.6992Z" fill="white"/>
<path d="M48.872 34.6992H43.8205V39.7507H48.872V34.6992Z" fill="white"/>
<path d="M58.9751 34.6992H53.9235V39.7507H58.9751L58.9751 34.6992Z" fill="white"/>
<path d="M69.0781 34.6992H64.0266V39.7507H69.0781V34.6992Z" fill="white"/>
<path d="M79.1812 34.6992H74.1297V39.7507H79.1812V34.6992Z" fill="white"/>
<path d="M84.2327 34.6992H79.1812V39.7507H84.2327V34.6992Z" fill="white"/>
<path d="M89.2843 34.6992H84.2327V39.7507H89.2843V34.6992Z" fill="white"/>
<path d="M94.3358 34.6992H89.2843V39.7507H94.3358V34.6992Z" fill="white"/>
<path d="M99.3873 34.6992H94.3358V39.7507H99.3873V34.6992Z" fill="white"/>
<path d="M104.439 34.6992H99.3873V39.7507H104.439V34.6992Z" fill="white"/>
<path d="M109.49 34.6992H104.439V39.7507H109.49V34.6992Z" fill="white"/>
<path d="M53.9235 39.7507H48.872L48.872 44.8023H53.9235L53.9235 39.7507Z" fill="white"/>
<path d="M13.5113 44.8023H8.45977V49.8538H13.5113V44.8023Z" fill="white"/>
<path d="M18.5628 44.8023H13.5113V49.8538H18.5628V44.8023Z" fill="white"/>
<path d="M23.6144 44.8023H18.5628V49.8538H23.6144V44.8023Z" fill="white"/>
<path d="M38.769 44.8023H33.7174V49.8538H38.769V44.8023Z" fill="white"/>
<path d="M43.8205 44.8023H38.769V49.8538H43.8205V44.8023Z" fill="white"/>
<path d="M48.872 44.8023L43.8205 44.8023V49.8538H48.872L48.872 44.8023Z" fill="white"/>
<path d="M53.9235 44.8023H48.872L48.872 49.8538H53.9235V44.8023Z" fill="white"/>
<path d="M64.0266 44.8023H58.9751V49.8538H64.0266V44.8023Z" fill="white"/>
<path d="M74.1297 44.8023H69.0781V49.8538H74.1297V44.8023Z" fill="white"/>
<path d="M109.49 44.8023H104.439V49.8538H109.49V44.8023Z" fill="white"/>
<path d="M23.6144 49.8538H18.5628V54.9053H23.6144V49.8538Z" fill="white"/>
<path d="M33.7174 49.8538L28.6659 49.8538V54.9053H33.7174V49.8538Z" fill="white"/>
<path d="M64.0266 49.8538H58.9751V54.9053H64.0266V49.8538Z" fill="white"/>
<path d="M89.2843 49.8538H84.2327V54.9053H89.2843V49.8538Z" fill="white"/>
<path d="M94.3358 49.8538H89.2843V54.9053H94.3358V49.8538Z" fill="white"/>
<path d="M8.45977 54.9053H3.40824V59.9568H8.45977V54.9053Z" fill="white"/>
<path d="M38.769 54.9053L33.7174 54.9053V59.9568H38.769V54.9053Z" fill="white"/>
<path d="M43.8205 54.9053H38.769V59.9568H43.8205V54.9053Z" fill="white"/>
<path d="M48.872 54.9053H43.8205V59.9568H48.872V54.9053Z" fill="white"/>
<path d="M53.9235 54.9053H48.872V59.9568H53.9235V54.9053Z" fill="white"/>
<path d="M69.0781 54.9053L64.0266 54.9053V59.9568H69.0781V54.9053Z" fill="white"/>
<path d="M84.2327 54.9053L79.1812 54.9053V59.9568H84.2327V54.9053Z" fill="white"/>
<path d="M89.2843 54.9053H84.2327V59.9568H89.2843V54.9053Z" fill="white"/>
<path d="M94.3358 54.9053H89.2843V59.9568H94.3358V54.9053Z" fill="white"/>
<path d="M99.3873 54.9053L94.3358 54.9053V59.9568H99.3873V54.9053Z" fill="white"/>
<path d="M104.439 54.9053H99.3873V59.9568H104.439V54.9053Z" fill="white"/>
<path d="M13.5113 59.9568L8.45977 59.9568V65.0084H13.5113V59.9568Z" fill="white"/>
<path d="M28.6659 59.9568H23.6144V65.0084H28.6659V59.9568Z" fill="white"/>
<path d="M43.8205 59.9568H38.769V65.0084H43.8205V59.9568Z" fill="white"/>
<path d="M58.9751 59.9568L53.9235 59.9568L53.9235 65.0084H58.9751V59.9568Z" fill="white"/>
<path d="M74.1297 59.9568L69.0781 59.9568V65.0084H74.1297V59.9568Z" fill="white"/>
<path d="M84.2327 59.9568H79.1812V65.0084H84.2327V59.9568Z" fill="white"/>
<path d="M109.49 59.9568L104.439 59.9568V65.0084H109.49V59.9568Z" fill="white"/>
<path d="M8.45977 65.0084H3.40824V70.0599H8.45977V65.0084Z" fill="white"/>
<path d="M13.5113 65.0084H8.45977V70.0599H13.5113V65.0084Z" fill="white"/>
<path d="M18.5628 65.0084H13.5113V70.0599H18.5628V65.0084Z" fill="white"/>
<path d="M28.6659 65.0084H23.6144V70.0599H28.6659V65.0084Z" fill="white"/>
<path d="M33.7174 65.0084H28.6659V70.0599H33.7174V65.0084Z" fill="white"/>
<path d="M38.769 65.0084H33.7174V70.0599H38.769V65.0084Z" fill="white"/>
<path d="M43.8205 65.0084H38.769V70.0599H43.8205V65.0084Z" fill="white"/>
<path d="M48.872 65.0084H43.8205V70.0599H48.872V65.0084Z" fill="white"/>
<path d="M53.9235 65.0084H48.872V70.0599H53.9235L53.9235 65.0084Z" fill="white"/>
<path d="M74.1297 65.0084H69.0781V70.0599H74.1297V65.0084Z" fill="white"/>
<path d="M79.1812 65.0084H74.1297V70.0599H79.1812V65.0084Z" fill="white"/>
<path d="M84.2327 65.0084H79.1812V70.0599H84.2327V65.0084Z" fill="white"/>
<path d="M89.2843 65.0084H84.2327V70.0599H89.2843V65.0084Z" fill="white"/>
<path d="M94.3358 65.0084H89.2843V70.0599H94.3358V65.0084Z" fill="white"/>
<path d="M48.872 70.0599H43.8205L43.8205 75.1114H48.872V70.0599Z" fill="white"/>
<path d="M58.9751 70.0599H53.9235L53.9235 75.1114H58.9751V70.0599Z" fill="white"/>
<path d="M69.0781 70.0599H64.0266V75.1114H69.0781V70.0599Z" fill="white"/>
<path d="M74.1297 70.0599H69.0781V75.1114H74.1297V70.0599Z" fill="white"/>
<path d="M84.2327 70.0599H79.1812V75.1114H84.2327V70.0599Z" fill="white"/>
<path d="M109.49 70.0599H104.439V75.1114H109.49V70.0599Z" fill="white"/>
<path d="M8.45977 75.1114H3.40824V80.163H8.45977V75.1114Z" fill="white"/>
<path d="M13.5113 75.1114H8.45977V80.163H13.5113V75.1114Z" fill="white"/>
<path d="M18.5628 75.1114H13.5113V80.163H18.5628V75.1114Z" fill="white"/>
<path d="M23.6144 75.1114H18.5628V80.163H23.6144V75.1114Z" fill="white"/>
<path d="M28.6659 75.1114H23.6144V80.163H28.6659V75.1114Z" fill="white"/>
<path d="M33.7174 75.1114H28.6659V80.163H33.7174V75.1114Z" fill="white"/>
<path d="M38.769 75.1114H33.7174V80.163H38.769V75.1114Z" fill="white"/>
<path d="M48.872 75.1114H43.8205V80.163H48.872V75.1114Z" fill="white"/>
<path d="M53.9235 75.1114H48.872V80.163H53.9235L53.9235 75.1114Z" fill="white"/>
<path d="M58.9751 75.1114H53.9235L53.9235 80.163H58.9751V75.1114Z" fill="white"/>
<path d="M69.0781 75.1114H64.0266V80.163H69.0781V75.1114Z" fill="white"/>
<path d="M74.1297 75.1114H69.0781V80.163H74.1297V75.1114Z" fill="white"/>
<path d="M79.1812 75.1114H74.1297V80.163H79.1812V75.1114Z" fill="white"/>
<path d="M99.3873 75.1114H94.3358V80.163H99.3873V75.1114Z" fill="white"/>
<path d="M8.45977 80.163H3.40824V85.2145H8.45977V80.163Z" fill="white"/>
<path d="M38.769 80.163H33.7174V85.2145H38.769V80.163Z" fill="white"/>
<path d="M53.9235 80.163H48.872L48.872 85.2145H53.9235V80.163Z" fill="white"/>
<path d="M64.0266 80.163H58.9751L58.9751 85.2145H64.0266V80.163Z" fill="white"/>
<path d="M104.439 80.163H99.3873V85.2145H104.439V80.163Z" fill="white"/>
<path d="M8.45977 85.2145H3.40824V90.266H8.45977V85.2145Z" fill="white"/>
<path d="M18.5628 85.2145H13.5113V90.266H18.5628V85.2145Z" fill="white"/>
<path d="M23.6144 85.2145H18.5628V90.266H23.6144V85.2145Z" fill="white"/>
<path d="M28.6659 85.2145H23.6144V90.266H28.6659V85.2145Z" fill="white"/>
<path d="M38.769 85.2145H33.7174V90.266H38.769V85.2145Z" fill="white"/>
<path d="M69.0781 85.2145H64.0266V90.266H69.0781V85.2145Z" fill="white"/>
<path d="M74.1297 85.2145H69.0781V90.266H74.1297V85.2145Z" fill="white"/>
<path d="M84.2327 85.2145H79.1812V90.266H84.2327V85.2145Z" fill="white"/>
<path d="M94.3358 85.2145H89.2843V90.266H94.3358V85.2145Z" fill="white"/>
<path d="M99.3873 85.2145H94.3358V90.266H99.3873V85.2145Z" fill="white"/>
<path d="M104.439 85.2145H99.3873V90.266H104.439V85.2145Z" fill="white"/>
<path d="M109.49 85.2145H104.439V90.266H109.49V85.2145Z" fill="white"/>
<path d="M8.45977 90.266H3.40824V95.3176H8.45977V90.266Z" fill="white"/>
<path d="M18.5628 90.266H13.5113V95.3176H18.5628V90.266Z" fill="white"/>
<path d="M23.6144 90.266H18.5628V95.3176H23.6144V90.266Z" fill="white"/>
<path d="M28.6659 90.266H23.6144V95.3176H28.6659V90.266Z" fill="white"/>
<path d="M38.769 90.266H33.7174V95.3176H38.769V90.266Z" fill="white"/>
<path d="M48.872 90.266H43.8205V95.3176H48.872V90.266Z" fill="white"/>
<path d="M53.9235 90.266H48.872V95.3176H53.9235V90.266Z" fill="white"/>
<path d="M58.9751 90.266H53.9235V95.3176H58.9751V90.266Z" fill="white"/>
<path d="M64.0266 90.266H58.9751V95.3176H64.0266V90.266Z" fill="white"/>
<path d="M69.0781 90.266H64.0266V95.3176H69.0781V90.266Z" fill="white"/>
<path d="M84.2327 90.266H79.1812V95.3176H84.2327V90.266Z" fill="white"/>
<path d="M94.3358 90.266H89.2843V95.3176H94.3358V90.266Z" fill="white"/>
<path d="M99.3873 90.266H94.3358V95.3176H99.3873V90.266Z" fill="white"/>
<path d="M104.439 90.266H99.3873V95.3176H104.439V90.266Z" fill="white"/>
<path d="M8.45977 95.3176H3.40824V100.369H8.45977V95.3176Z" fill="white"/>
<path d="M18.5628 95.3176H13.5113V100.369H18.5628V95.3176Z" fill="white"/>
<path d="M23.6144 95.3176H18.5628V100.369H23.6144V95.3176Z" fill="white"/>
<path d="M28.6659 95.3176H23.6144V100.369H28.6659V95.3176Z" fill="white"/>
<path d="M38.769 95.3176H33.7174V100.369H38.769V95.3176Z" fill="white"/>
<path d="M48.872 95.3176H43.8205V100.369H48.872V95.3176Z" fill="white"/>
<path d="M53.9235 95.3176H48.872V100.369H53.9235V95.3176Z" fill="white"/>
<path d="M58.9751 95.3176H53.9235V100.369H58.9751V95.3176Z" fill="white"/>
<path d="M64.0266 95.3176H58.9751V100.369H64.0266V95.3176Z" fill="white"/>
<path d="M74.1297 95.3176H69.0781V100.369H74.1297V95.3176Z" fill="white"/>
<path d="M84.2327 95.3176H79.1812V100.369H84.2327V95.3176Z" fill="white"/>
<path d="M104.439 95.3176H99.3873V100.369H104.439V95.3176Z" fill="white"/>
<path d="M8.45977 100.369H3.40824V105.421H8.45977V100.369Z" fill="white"/>
<path d="M38.769 100.369H33.7174V105.421H38.769V100.369Z" fill="white"/>
<path d="M48.872 100.369H43.8205V105.421H48.872V100.369Z" fill="white"/>
<path d="M58.9751 100.369H53.9235L53.9235 105.421H58.9751V100.369Z" fill="white"/>
<path d="M64.0266 100.369H58.9751V105.421H64.0266V100.369Z" fill="white"/>
<path d="M74.1297 100.369H69.0781V105.421H74.1297V100.369Z" fill="white"/>
<path d="M79.1812 100.369H74.1297V105.421H79.1812V100.369Z" fill="white"/>
<path d="M99.3873 100.369H94.3358V105.421H99.3873V100.369Z" fill="white"/>
<path d="M109.49 100.369H104.439V105.421H109.49V100.369Z" fill="white"/>
<path d="M8.45977 105.421H3.40824V110.472H8.45977V105.421Z" fill="white"/>
<path d="M13.5113 105.421H8.45977V110.472H13.5113V105.421Z" fill="white"/>
<path d="M18.5628 105.421H13.5113V110.472H18.5628V105.421Z" fill="white"/>
<path d="M23.6144 105.421H18.5628V110.472H23.6144V105.421Z" fill="white"/>
<path d="M28.6659 105.421H23.6144V110.472H28.6659V105.421Z" fill="white"/>
<path d="M33.7174 105.421H28.6659V110.472H33.7174V105.421Z" fill="white"/>
<path d="M38.769 105.421H33.7174V110.472H38.769V105.421Z" fill="white"/>
<path d="M64.0266 105.421H58.9751L58.9751 110.472H64.0266V105.421Z" fill="white"/>
<path d="M69.0781 105.421H64.0266V110.472H69.0781V105.421Z" fill="white"/>
<path d="M74.1297 105.421H69.0781V110.472H74.1297V105.421Z" fill="white"/>
<path d="M84.2327 105.421H79.1812V110.472H84.2327V105.421Z" fill="white"/>
<path d="M89.2843 105.421H84.2327V110.472H89.2843V105.421Z" fill="white"/>
<path d="M99.3873 105.421H94.3358V110.472H99.3873V105.421Z" fill="white"/>
</svg>
