<svg width="275" height="275" viewBox="0 0 275 275" fill="none" xmlns="http://www.w3.org/2000/svg">
<path d="M20.6063 8.30194H8.30176V20.6065H20.6063V8.30194Z" fill="white"/>
<path d="M32.9109 8.30194H20.6063V20.6065H32.9109V8.30194Z" fill="white"/>
<path d="M45.2155 8.30194H32.9109V20.6065H45.2155V8.30194Z" fill="white"/>
<path d="M57.5201 8.30194H45.2155V20.6065H57.5201V8.30194Z" fill="white"/>
<path d="M69.8247 8.30194H57.5201V20.6065H69.8247V8.30194Z" fill="white"/>
<path d="M82.1292 8.30194H69.8247V20.6065H82.1292V8.30194Z" fill="white"/>
<path d="M94.4338 8.30194H82.1292V20.6065H94.4338V8.30194Z" fill="white"/>
<path d="M119.043 8.30194H106.738V20.6065H119.043V8.30194Z" fill="white"/>
<path d="M131.348 8.30194H119.043V20.6065H131.348V8.30194Z" fill="white"/>
<path d="M143.652 8.30194H131.348V20.6065H143.652V8.30194Z" fill="white"/>
<path d="M168.261 8.30194H155.957V20.6065H168.261V8.30194Z" fill="white"/>
<path d="M192.87 8.30194H180.566V20.6065H192.87V8.30194Z" fill="white"/>
<path d="M205.175 8.30194H192.87V20.6065H205.175V8.30194Z" fill="white"/>
<path d="M217.48 8.30194H205.175V20.6065H217.48V8.30194Z" fill="white"/>
<path d="M229.784 8.30194H217.48V20.6065H229.784V8.30194Z" fill="white"/>
<path d="M242.089 8.30194H229.784V20.6065H242.089V8.30194Z" fill="white"/>
<path d="M254.393 8.30194H242.089V20.6065H254.393V8.30194Z" fill="white"/>
<path d="M266.698 8.30194H254.393V20.6065H266.698V8.30194Z" fill="white"/>
<path d="M20.6063 20.6065H8.30176V32.9111H20.6063V20.6065Z" fill="white"/>
<path d="M94.4338 20.6065H82.1292V32.9111H94.4338V20.6065Z" fill="white"/>
<path d="M143.652 20.6065H131.348L131.348 32.9111H143.652V20.6065Z" fill="white"/>
<path d="M192.87 20.6065H180.566V32.9111H192.87V20.6065Z" fill="white"/>
<path d="M266.698 20.6065H254.393V32.9111H266.698V20.6065Z" fill="white"/>
<path d="M20.6063 32.9111H8.30176V45.2157H20.6063V32.9111Z" fill="white"/>
<path d="M45.2155 32.9111H32.9109V45.2157H45.2155V32.9111Z" fill="white"/>
<path d="M57.5201 32.9111H45.2155V45.2157H57.5201V32.9111Z" fill="white"/>
<path d="M69.8247 32.9111H57.5201V45.2157H69.8247V32.9111Z" fill="white"/>
<path d="M94.4338 32.9111H82.1292V45.2157H94.4338V32.9111Z" fill="white"/>
<path d="M131.348 32.9111H119.043V45.2157H131.348L131.348 32.9111Z" fill="white"/>
<path d="M143.652 32.9111H131.348L131.348 45.2157H143.652V32.9111Z" fill="white"/>
<path d="M155.957 32.9111H143.652V45.2157H155.957V32.9111Z" fill="white"/>
<path d="M168.261 32.9111H155.957V45.2157H168.261V32.9111Z" fill="white"/>
<path d="M192.87 32.9111H180.566V45.2157H192.87V32.9111Z" fill="white"/>
<path d="M217.48 32.9111H205.175V45.2157H217.48V32.9111Z" fill="white"/>
<path d="M229.784 32.9111H217.48V45.2157H229.784V32.9111Z" fill="white"/>
<path d="M242.089 32.9111H229.784V45.2157H242.089V32.9111Z" fill="white"/>
<path d="M266.698 32.9111H254.393V45.2157H266.698V32.9111Z" fill="white"/>
<path d="M20.6063 45.2157H8.30176V57.5203H20.6063V45.2157Z" fill="white"/>
<path d="M45.2155 45.2157H32.9109V57.5203H45.2155V45.2157Z" fill="white"/>
<path d="M57.5201 45.2157H45.2155V57.5203H57.5201V45.2157Z" fill="white"/>
<path d="M69.8247 45.2157H57.5201V57.5203H69.8247V45.2157Z" fill="white"/>
<path d="M94.4338 45.2157H82.1292V57.5203H94.4338V45.2157Z" fill="white"/>
<path d="M131.348 45.2157H119.043V57.5203H131.348V45.2157Z" fill="white"/>
<path d="M143.652 45.2157H131.348V57.5203H143.652V45.2157Z" fill="white"/>
<path d="M192.87 45.2157H180.566V57.5203H192.87V45.2157Z" fill="white"/>
<path d="M217.48 45.2157H205.175V57.5203H217.48V45.2157Z" fill="white"/>
<path d="M229.784 45.2157H217.48V57.5203H229.784V45.2157Z" fill="white"/>
<path d="M242.089 45.2157H229.784V57.5203H242.089V45.2157Z" fill="white"/>
<path d="M266.698 45.2157H254.393V57.5203H266.698V45.2157Z" fill="white"/>
<path d="M20.6063 57.5203H8.30176V69.8248H20.6063V57.5203Z" fill="white"/>
<path d="M45.2155 57.5203H32.9109V69.8248H45.2155V57.5203Z" fill="white"/>
<path d="M57.5201 57.5203H45.2155V69.8248H57.5201V57.5203Z" fill="white"/>
<path d="M69.8247 57.5203H57.5201V69.8248H69.8247V57.5203Z" fill="white"/>
<path d="M94.4338 57.5203H82.1292V69.8248H94.4338V57.5203Z" fill="white"/>
<path d="M131.348 57.5203H119.043V69.8248H131.348V57.5203Z" fill="white"/>
<path d="M143.652 57.5203H131.348V69.8248H143.652V57.5203Z" fill="white"/>
<path d="M192.87 57.5203H180.566V69.8248H192.87V57.5203Z" fill="white"/>
<path d="M217.48 57.5203H205.175V69.8248H217.48V57.5203Z" fill="white"/>
<path d="M229.784 57.5203H217.48V69.8248H229.784V57.5203Z" fill="white"/>
<path d="M242.089 57.5203H229.784V69.8248H242.089V57.5203Z" fill="white"/>
<path d="M266.698 57.5203H254.393V69.8248H266.698V57.5203Z" fill="white"/>
<path d="M20.6063 69.8248H8.30176V82.1294H20.6063V69.8248Z" fill="white"/>
<path d="M94.4338 69.8248H82.1292V82.1294H94.4338V69.8248Z" fill="white"/>
<path d="M155.957 69.8248H143.652L143.652 82.1294H155.957V69.8248Z" fill="white"/>
<path d="M192.87 69.8248H180.566V82.1294H192.87V69.8248Z" fill="white"/>
<path d="M266.698 69.8248H254.393V82.1294H266.698V69.8248Z" fill="white"/>
<path d="M20.6063 82.1294H8.30176V94.434H20.6063V82.1294Z" fill="white"/>
<path d="M32.9109 82.1294H20.6063V94.434H32.9109V82.1294Z" fill="white"/>
<path d="M45.2155 82.1294H32.9109V94.434H45.2155V82.1294Z" fill="white"/>
<path d="M57.5201 82.1294H45.2155V94.434H57.5201V82.1294Z" fill="white"/>
<path d="M69.8247 82.1294H57.5201V94.434H69.8247V82.1294Z" fill="white"/>
<path d="M82.1292 82.1294H69.8247V94.434H82.1292V82.1294Z" fill="white"/>
<path d="M94.4338 82.1294H82.1292V94.434H94.4338V82.1294Z" fill="white"/>
<path d="M119.043 82.1294H106.738V94.434H119.043V82.1294Z" fill="white"/>
<path d="M143.652 82.1294H131.348V94.434H143.652L143.652 82.1294Z" fill="white"/>
<path d="M168.261 82.1294H155.957V94.434H168.261V82.1294Z" fill="white"/>
<path d="M192.87 82.1294H180.566V94.434H192.87V82.1294Z" fill="white"/>
<path d="M205.175 82.1294H192.87V94.434H205.175V82.1294Z" fill="white"/>
<path d="M217.48 82.1294H205.175V94.434H217.48V82.1294Z" fill="white"/>
<path d="M229.784 82.1294H217.48V94.434H229.784V82.1294Z" fill="white"/>
<path d="M242.089 82.1294H229.784V94.434H242.089V82.1294Z" fill="white"/>
<path d="M254.393 82.1294H242.089V94.434H254.393V82.1294Z" fill="white"/>
<path d="M266.698 82.1294H254.393V94.434H266.698V82.1294Z" fill="white"/>
<path d="M131.348 94.434H119.043L119.043 106.739H131.348L131.348 94.434Z" fill="white"/>
<path d="M32.9109 106.739H20.6063V119.043H32.9109V106.739Z" fill="white"/>
<path d="M45.2155 106.739H32.9109V119.043H45.2155V106.739Z" fill="white"/>
<path d="M57.5201 106.739H45.2155V119.043H57.5201V106.739Z" fill="white"/>
<path d="M94.4338 106.739H82.1292V119.043H94.4338V106.739Z" fill="white"/>
<path d="M106.738 106.739H94.4338V119.043H106.738V106.739Z" fill="white"/>
<path d="M119.043 106.739L106.738 106.739V119.043H119.043L119.043 106.739Z" fill="white"/>
<path d="M131.348 106.739H119.043L119.043 119.043H131.348V106.739Z" fill="white"/>
<path d="M155.957 106.739H143.652V119.043H155.957V106.739Z" fill="white"/>
<path d="M180.566 106.739H168.261V119.043H180.566V106.739Z" fill="white"/>
<path d="M266.698 106.739H254.393V119.043H266.698V106.739Z" fill="white"/>
<path d="M57.5201 119.043H45.2155V131.348H57.5201V119.043Z" fill="white"/>
<path d="M82.1292 119.043L69.8247 119.043V131.348H82.1292V119.043Z" fill="white"/>
<path d="M155.957 119.043H143.652V131.348H155.957V119.043Z" fill="white"/>
<path d="M217.48 119.043H205.175V131.348H217.48V119.043Z" fill="white"/>
<path d="M229.784 119.043H217.48V131.348H229.784V119.043Z" fill="white"/>
<path d="M20.6063 131.348H8.30176V143.652H20.6063V131.348Z" fill="white"/>
<path d="M94.4338 131.348L82.1292 131.348V143.652H94.4338V131.348Z" fill="white"/>
<path d="M106.738 131.348H94.4338V143.652H106.738V131.348Z" fill="white"/>
<path d="M119.043 131.348H106.738V143.652H119.043V131.348Z" fill="white"/>
<path d="M131.348 131.348H119.043V143.652H131.348V131.348Z" fill="white"/>
<path d="M168.261 131.348L155.957 131.348V143.652H168.261V131.348Z" fill="white"/>
<path d="M205.175 131.348L192.87 131.348V143.652H205.175V131.348Z" fill="white"/>
<path d="M217.48 131.348H205.175V143.652H217.48V131.348Z" fill="white"/>
<path d="M229.784 131.348H217.48V143.652H229.784V131.348Z" fill="white"/>
<path d="M242.089 131.348L229.784 131.348V143.652H242.089V131.348Z" fill="white"/>
<path d="M254.393 131.348H242.089V143.652H254.393V131.348Z" fill="white"/>
<path d="M32.9109 143.652L20.6063 143.652V155.957H32.9109V143.652Z" fill="white"/>
<path d="M69.8247 143.652H57.5201V155.957H69.8247V143.652Z" fill="white"/>
<path d="M106.738 143.652H94.4338V155.957H106.738V143.652Z" fill="white"/>
<path d="M143.652 143.652L131.348 143.652L131.348 155.957H143.652V143.652Z" fill="white"/>
<path d="M180.566 143.652L168.261 143.652V155.957H180.566V143.652Z" fill="white"/>
<path d="M205.175 143.652H192.87V155.957H205.175V143.652Z" fill="white"/>
<path d="M266.698 143.652L254.393 143.652V155.957H266.698V143.652Z" fill="white"/>
<path d="M20.6063 155.957H8.30176V168.262H20.6063V155.957Z" fill="white"/>
<path d="M32.9109 155.957H20.6063V168.262H32.9109V155.957Z" fill="white"/>
<path d="M45.2155 155.957H32.9109V168.262H45.2155V155.957Z" fill="white"/>
<path d="M69.8247 155.957H57.5201V168.262H69.8247V155.957Z" fill="white"/>
<path d="M82.1292 155.957H69.8247V168.262H82.1292V155.957Z" fill="white"/>
<path d="M94.4338 155.957H82.1292V168.262H94.4338V155.957Z" fill="white"/>
<path d="M106.738 155.957H94.4338V168.262H106.738V155.957Z" fill="white"/>
<path d="M119.043 155.957H106.738V168.262H119.043V155.957Z" fill="white"/>
<path d="M131.348 155.957H119.043V168.262H131.348L131.348 155.957Z" fill="white"/>
<path d="M180.566 155.957H168.261V168.262H180.566V155.957Z" fill="white"/>
<path d="M192.87 155.957H180.566V168.262H192.87V155.957Z" fill="white"/>
<path d="M205.175 155.957H192.87V168.262H205.175V155.957Z" fill="white"/>
<path d="M217.48 155.957H205.175V168.262H217.48V155.957Z" fill="white"/>
<path d="M229.784 155.957H217.48V168.262H229.784V155.957Z" fill="white"/>
<path d="M119.043 168.262H106.738L106.738 180.566H119.043V168.262Z" fill="white"/>
<path d="M143.652 168.262H131.348L131.348 180.566H143.652V168.262Z" fill="white"/>
<path d="M168.261 168.262H155.957V180.566H168.261V168.262Z" fill="white"/>
<path d="M180.566 168.262H168.261V180.566H180.566V168.262Z" fill="white"/>
<path d="M205.175 168.262H192.87V180.566H205.175V168.262Z" fill="white"/>
<path d="M266.698 168.262H254.393V180.566H266.698V168.262Z" fill="white"/>
<path d="M20.6063 180.566H8.30176V192.871H20.6063V180.566Z" fill="white"/>
<path d="M32.9109 180.566H20.6063V192.871H32.9109V180.566Z" fill="white"/>
<path d="M45.2155 180.566H32.9109V192.871H45.2155V180.566Z" fill="white"/>
<path d="M57.5201 180.566H45.2155V192.871H57.5201V180.566Z" fill="white"/>
<path d="M69.8247 180.566H57.5201V192.871H69.8247V180.566Z" fill="white"/>
<path d="M82.1292 180.566H69.8247V192.871H82.1292V180.566Z" fill="white"/>
<path d="M94.4338 180.566H82.1292V192.871H94.4338V180.566Z" fill="white"/>
<path d="M119.043 180.566H106.738V192.871H119.043V180.566Z" fill="white"/>
<path d="M131.348 180.566H119.043V192.871H131.348L131.348 180.566Z" fill="white"/>
<path d="M143.652 180.566H131.348L131.348 192.871H143.652V180.566Z" fill="white"/>
<path d="M168.261 180.566H155.957V192.871H168.261V180.566Z" fill="white"/>
<path d="M180.566 180.566H168.261V192.871H180.566V180.566Z" fill="white"/>
<path d="M192.87 180.566H180.566V192.871H192.87V180.566Z" fill="white"/>
<path d="M242.089 180.566H229.784V192.871H242.089V180.566Z" fill="white"/>
<path d="M20.6063 192.871H8.30176V205.175H20.6063V192.871Z" fill="white"/>
<path d="M94.4338 192.871H82.1292V205.175H94.4338V192.871Z" fill="white"/>
<path d="M131.348 192.871H119.043L119.043 205.175H131.348V192.871Z" fill="white"/>
<path d="M155.957 192.871H143.652L143.652 205.175H155.957V192.871Z" fill="white"/>
<path d="M254.393 192.871H242.089V205.175H254.393V192.871Z" fill="white"/>
<path d="M20.6063 205.175H8.30176V217.48H20.6063V205.175Z" fill="white"/>
<path d="M45.2155 205.175H32.9109V217.48H45.2155V205.175Z" fill="white"/>
<path d="M57.5201 205.175H45.2155V217.48H57.5201V205.175Z" fill="white"/>
<path d="M69.8247 205.175H57.5201V217.48H69.8247V205.175Z" fill="white"/>
<path d="M94.4338 205.175H82.1292V217.48H94.4338V205.175Z" fill="white"/>
<path d="M168.261 205.175H155.957V217.48H168.261V205.175Z" fill="white"/>
<path d="M180.566 205.175H168.261V217.48H180.566V205.175Z" fill="white"/>
<path d="M205.175 205.175H192.87V217.48H205.175V205.175Z" fill="white"/>
<path d="M229.784 205.175H217.48V217.48H229.784V205.175Z" fill="white"/>
<path d="M242.089 205.175H229.784V217.48H242.089V205.175Z" fill="white"/>
<path d="M254.393 205.175H242.089V217.48H254.393V205.175Z" fill="white"/>
<path d="M266.698 205.175H254.393V217.48H266.698V205.175Z" fill="white"/>
<path d="M20.6063 217.48H8.30176V229.784H20.6063V217.48Z" fill="white"/>
<path d="M45.2155 217.48H32.9109V229.784H45.2155V217.48Z" fill="white"/>
<path d="M57.5201 217.48H45.2155V229.784H57.5201V217.48Z" fill="white"/>
<path d="M69.8247 217.48H57.5201V229.784H69.8247V217.48Z" fill="white"/>
<path d="M94.4338 217.48H82.1292V229.784H94.4338V217.48Z" fill="white"/>
<path d="M119.043 217.48H106.738V229.784H119.043V217.48Z" fill="white"/>
<path d="M131.348 217.48H119.043V229.784H131.348V217.48Z" fill="white"/>
<path d="M143.652 217.48H131.348V229.784H143.652V217.48Z" fill="white"/>
<path d="M155.957 217.48H143.652V229.784H155.957V217.48Z" fill="white"/>
<path d="M168.261 217.48H155.957V229.784H168.261V217.48Z" fill="white"/>
<path d="M205.175 217.48H192.87V229.784H205.175V217.48Z" fill="white"/>
<path d="M229.784 217.48H217.48V229.784H229.784V217.48Z" fill="white"/>
<path d="M242.089 217.48H229.784V229.784H242.089V217.48Z" fill="white"/>
<path d="M254.393 217.48H242.089V229.784H254.393V217.48Z" fill="white"/>
<path d="M20.6063 229.784H8.30176V242.089H20.6063V229.784Z" fill="white"/>
<path d="M45.2155 229.784H32.9109V242.089H45.2155V229.784Z" fill="white"/>
<path d="M57.5201 229.784H45.2155V242.089H57.5201V229.784Z" fill="white"/>
<path d="M69.8247 229.784H57.5201V242.089H69.8247V229.784Z" fill="white"/>
<path d="M94.4338 229.784H82.1292V242.089H94.4338V229.784Z" fill="white"/>
<path d="M119.043 229.784H106.738V242.089H119.043V229.784Z" fill="white"/>
<path d="M131.348 229.784H119.043V242.089H131.348V229.784Z" fill="white"/>
<path d="M143.652 229.784H131.348V242.089H143.652V229.784Z" fill="white"/>
<path d="M155.957 229.784H143.652V242.089H155.957V229.784Z" fill="white"/>
<path d="M180.566 229.784H168.261V242.089H180.566V229.784Z" fill="white"/>
<path d="M205.175 229.784H192.87V242.089H205.175V229.784Z" fill="white"/>
<path d="M254.393 229.784H242.089V242.089H254.393V229.784Z" fill="white"/>
<path d="M20.6063 242.089H8.30176V254.394H20.6063V242.089Z" fill="white"/>
<path d="M94.4338 242.089H82.1292V254.394H94.4338V242.089Z" fill="white"/>
<path d="M119.043 242.089H106.738V254.394H119.043V242.089Z" fill="white"/>
<path d="M143.652 242.089H131.348L131.348 254.394H143.652V242.089Z" fill="white"/>
<path d="M155.957 242.089H143.652V254.394H155.957V242.089Z" fill="white"/>
<path d="M180.566 242.089H168.261V254.394H180.566V242.089Z" fill="white"/>
<path d="M192.87 242.089H180.566V254.394H192.87V242.089Z" fill="white"/>
<path d="M242.089 242.089H229.784V254.394H242.089V242.089Z" fill="white"/>
<path d="M266.698 242.089H254.393V254.394H266.698V242.089Z" fill="white"/>
<path d="M20.6063 254.394H8.30176V266.698H20.6063V254.394Z" fill="white"/>
<path d="M32.9109 254.394H20.6063V266.698H32.9109V254.394Z" fill="white"/>
<path d="M45.2155 254.394H32.9109V266.698H45.2155V254.394Z" fill="white"/>
<path d="M57.5201 254.394H45.2155V266.698H57.5201V254.394Z" fill="white"/>
<path d="M69.8247 254.394H57.5201V266.698H69.8247V254.394Z" fill="white"/>
<path d="M82.1292 254.394H69.8247V266.698H82.1292V254.394Z" fill="white"/>
<path d="M94.4338 254.394H82.1292V266.698H94.4338V254.394Z" fill="white"/>
<path d="M155.957 254.394H143.652L143.652 266.698H155.957V254.394Z" fill="white"/>
<path d="M168.261 254.394H155.957V266.698H168.261V254.394Z" fill="white"/>
<path d="M180.566 254.394H168.261V266.698H180.566V254.394Z" fill="white"/>
<path d="M205.175 254.394H192.87V266.698H205.175V254.394Z" fill="white"/>
<path d="M217.48 254.394H205.175V266.698H217.48V254.394Z" fill="white"/>
<path d="M242.089 254.394H229.784V266.698H242.089V254.394Z" fill="white"/>
</svg>
